<?xml version="1.0" encoding="UTF-8" standalone="no"?>
<svg
   viewBox="0 0 36.710819 34"
   version="1.1"
   id="svg10"
   sodipodi:docname="chestnut.svg"
   width="36.710819"
   height="34"
   inkscape:version="1.4 (e7c3feb100, 2024-10-09)"
   xmlns:inkscape="http://www.inkscape.org/namespaces/inkscape"
   xmlns:sodipodi="http://sodipodi.sourceforge.net/DTD/sodipodi-0.dtd"
   xmlns="http://www.w3.org/2000/svg"
   xmlns:svg="http://www.w3.org/2000/svg">
  <sodipodi:namedview
     id="namedview10"
     pagecolor="#ffffff"
     bordercolor="#000000"
     borderopacity="0.25"
     inkscape:showpageshadow="2"
     inkscape:pageopacity="0.0"
     inkscape:pagecheckerboard="0"
     inkscape:deskcolor="#d1d1d1"
     inkscape:zoom="2.1310967"
     inkscape:cx="-106.75255"
     inkscape:cy="59.359108"
     inkscape:window-width="1920"
     inkscape:window-height="1019"
     inkscape:window-x="0"
     inkscape:window-y="0"
     inkscape:window-maximized="1"
     inkscape:current-layer="svg10" />
  <defs
     id="defs4">
    <linearGradient
       id="b"
       x1="50"
       x2="50"
       y1="85.139999"
       y2="14.86"
       gradientUnits="userSpaceOnUse">
      <stop
         offset=".4"
         stop-color="#a0482d"
         id="stop1" />
      <stop
         offset="1"
         stop-color="#b36c56"
         id="stop2" />
    </linearGradient>
    <linearGradient
       id="c"
       x1="49.84"
       x2="49.84"
       y1="81.510002"
       y2="63.91"
       gradientUnits="userSpaceOnUse">
      <stop
         offset="0"
         stop-color="#fff"
         stop-opacity=".5"
         id="stop3" />
      <stop
         offset="1"
         stop-color="#fff"
         stop-opacity="0"
         id="stop4" />
    </linearGradient>
    <style
       id="style4">
      .f{fill:none;stroke:#6b3434;stroke-linecap:round;stroke-linejoin:round;stroke-width:3.77px}
    </style>
  </defs>
  <g
     id="g23"
     transform="scale(0.40093868)">
    <path
       style="fill:#803300;stroke:#994a21;stroke-width:4;stroke-dasharray:none;stroke-opacity:1"
       d="M 45.555141,2.7543872 C 28.657761,18.856424 -8.2954787,31.520009 4.7015813,60.630255 17.698631,89.740502 70.210071,90.022898 87.430031,60.970701 98.792561,41.80071 62.452511,18.6543 45.555141,2.7543872 Z"
       id="path11"
       sodipodi:nodetypes="czsc" />
    <path
       style="fill:none;fill-opacity:1;stroke:#e01e1e;stroke-width:0.377953;stroke-opacity:1"
       d="m 9.6017313,68.370409 c 0,0 15.0165297,-9.665285 36.1854497,-10.147216 15.01698,-0.341876 35.3814,10.693123 35.3814,10.693123"
       id="path13"
       sodipodi:nodetypes="csc" />
    <path
       style="fill:none;fill-opacity:1;stroke:#6c2b00;stroke-width:4;stroke-linecap:round;stroke-dasharray:16, 4.8;stroke-dashoffset:11.2;stroke-opacity:1"
       d="m 45.781091,32.883414 0.006,25.339779"
       id="path16"
       sodipodi:nodetypes="cc" />
    <path
       style="fill:none;fill-opacity:1;stroke:#6c2b00;stroke-width:4;stroke-linecap:round;stroke-dasharray:16, 4.8;stroke-dashoffset:0.4;stroke-opacity:1"
       d="m 57.399681,33.084079 c 0,0 2.51217,4.566912 1.99961,14.280186 -0.42794,8.109782 -2.51523,10.859481 -2.51523,10.859481"
       id="path17"
       sodipodi:nodetypes="csc" />
    <path
       style="fill:none;fill-opacity:1;stroke:#6c2b00;stroke-width:4;stroke-linecap:round;stroke-dasharray:16, 4.8;stroke-dashoffset:10;stroke-opacity:1"
       d="m 71.484941,41.057892 c 0,0 2.93177,5.559643 1.74808,11.990436 -1.23559,6.712765 -4.95853,10.071581 -4.95853,10.071581"
       id="path18"
       sodipodi:nodetypes="csc" />
    <path
       style="fill:none;fill-opacity:1;stroke:#6c2b00;stroke-width:4;stroke-linecap:round;stroke-dasharray:16, 4.8;stroke-dashoffset:6;stroke-opacity:1"
       d="m 32.310321,34.19133 c 0,0 -4.11166,6.936633 -3.99921,15.24467 0.0649,4.791349 2.4775,9.798207 2.4775,9.798207"
       id="path19"
       sodipodi:nodetypes="csc" />
    <path
       style="fill:#deaa87;fill-opacity:1;stroke:#6a3e3e;stroke-width:4;stroke-dasharray:none;stroke-opacity:1"
       d="m 9.6017313,68.370409 c 0,0 15.0127797,-9.876213 36.1854497,-10.147216 15.37395,-0.196782 35.3814,10.693123 35.3814,10.693123 0,0 -11.54946,13.884681 -35.78955,13.884681 -24.24008,0 -35.7772997,-14.430588 -35.7772997,-14.430588"
       id="path14"
       sodipodi:nodetypes="csczc" />
    <path
       style="fill:#502d16;fill-opacity:0.479747;stroke:none;stroke-width:4;stroke-dasharray:none;stroke-opacity:1"
       d="m 24.160991,18.721964 c 0,0 -6.98385,22.084945 -3.01827,35.314486 6.42597,21.437609 27.13783,29.215551 27.13783,29.215551 0,0 -29.13483,-5.061509 -36.97867,-12.575383 C 3.4580313,63.162743 0.25953129,56.485183 1.8400213,46.337189 3.4205013,36.189194 24.160991,18.721964 24.160991,18.721964 Z"
       id="path20"
       sodipodi:nodetypes="csczzc" />
    <path
       style="fill:none;stroke:#994a21;stroke-width:4;stroke-dasharray:none;stroke-opacity:1"
       d="M 45.555141,2.7543872 C 28.657761,18.856424 -8.2954787,31.520009 4.7015813,60.630255 17.698631,89.740502 70.210071,90.022898 87.430031,60.970701 98.792561,41.80071 62.452511,18.6543 45.555141,2.7543872 Z"
       id="path15"
       sodipodi:nodetypes="czsc" />
    <ellipse
       style="fill:#e6e6e6;fill-opacity:0.479747;stroke:none;stroke-width:4;stroke-dasharray:none;stroke-opacity:1"
       id="path21"
       cx="63.018917"
       cy="71.037811"
       rx="3.3105659"
       ry="2.0691037" />
    <ellipse
       style="fill:#e6e6e6;fill-opacity:0.479747;stroke:none;stroke-width:4;stroke-dasharray:none;stroke-opacity:1"
       id="path22"
       cx="54.259701"
       cy="75.865723"
       rx="2.0001335"
       ry="1.2414622" />
    <ellipse
       style="fill:#e6e6e6;fill-opacity:0.479747;stroke:none;stroke-width:4;stroke-dasharray:none;stroke-opacity:1"
       id="ellipse22"
       cx="50.504665"
       cy="70.46785"
       rx="2.0001335"
       ry="1.2414622" />
    <ellipse
       style="fill:#e6e6e6;fill-opacity:0.479747;stroke:none;stroke-width:4;stroke-dasharray:none;stroke-opacity:1"
       id="ellipse23"
       cx="41.351757"
       cy="74.692268"
       rx="2.0001335"
       ry="1.2414622" />
  </g>
</svg>
