<?xml version="1.0" encoding="UTF-8" standalone="no"?>
<!-- Created with Inkscape (http://www.inkscape.org/) -->

<svg
   width="8.325942mm"
   height="9.260417mm"
   viewBox="0 0 5.3371423 5.9361647"
   version="1.1"
   id="svg1"
   xml:space="preserve"
   inkscape:version="1.4 (e7c3feb100, 2024-10-09)"
   sodipodi:docname="mulberry.svg"
   xmlns:inkscape="http://www.inkscape.org/namespaces/inkscape"
   xmlns:sodipodi="http://sodipodi.sourceforge.net/DTD/sodipodi-0.dtd"
   xmlns="http://www.w3.org/2000/svg"
   xmlns:svg="http://www.w3.org/2000/svg"><sodipodi:namedview
     id="namedview1"
     pagecolor="#ffffff"
     bordercolor="#000000"
     borderopacity="0.25"
     inkscape:showpageshadow="2"
     inkscape:pageopacity="0.0"
     inkscape:pagecheckerboard="0"
     inkscape:deskcolor="#d1d1d1"
     inkscape:document-units="mm"
     inkscape:zoom="0.79628913"
     inkscape:cx="175.81554"
     inkscape:cy="-6.9070389"
     inkscape:window-width="1920"
     inkscape:window-height="1019"
     inkscape:window-x="0"
     inkscape:window-y="0"
     inkscape:window-maximized="1"
     inkscape:current-layer="layer1" /><defs
     id="defs1" /><g
     inkscape:label="Layer 1"
     inkscape:groupmode="layer"
     id="layer1"
     transform="translate(-105.5124,-171.47719)"><g
       id="g25"
       transform="matrix(0.11255624,0,0,0.11255624,96.004524,154.81037)"><g
         id="g24"
         transform="matrix(0.81944993,-0.39169008,0.39169008,0.81944993,-36.266678,68.427234)"><path
           style="fill:#e3dedb;fill-opacity:1;stroke:#000000;stroke-width:1.5;stroke-linecap:round;stroke-linejoin:round;stroke-dasharray:none;stroke-dashoffset:0.105833;stroke-opacity:1"
           d="m 100.28542,163.15866 c -2.379979,0.097 -5.22555,-1.5408 -7.144687,-0.1299 -1.490401,1.0957 -1.476438,4.99643 -1.476438,4.99643 0,0 -3.424861,0.49249 -4.027006,3.07017 -0.602146,2.57768 1.996053,5.83306 1.996053,5.83306 0,0 -2.39669,1.83265 -2.385763,4.0396 0.01093,2.20695 2.385763,4.40412 2.385763,4.40412 0,0 -2.677924,2.31965 -2.25586,4.68912 0.422063,2.36948 4.20441,4.40412 4.20441,4.40412 0,0 0.761684,3.98849 2.550566,4.94893 1.788882,0.96044 4.140269,-0.60722 6.282862,-0.66212 2.3906,-0.0613 5.50594,1.59475 7.22709,0.40231 1.72115,-1.19243 1.34654,-4.94893 1.34654,-4.94893 0,0 3.80088,-1.41484 4.49911,-4.27421 0.69823,-2.85937 -2.42066,-4.68912 -2.42066,-4.68912 0,0 2.30044,-1.14737 2.42066,-3.6247 0.12023,-2.47732 -2.42066,-4.55922 -2.42066,-4.55922 0,0 2.64194,-2.18382 2.33826,-5.32604 -0.30368,-3.14222 -4.66392,-4.0493 -4.66392,-4.0493 0,0 -0.25144,-4.1319 -1.96115,-5.17383 -1.85801,-1.13231 -4.32112,0.56088 -6.49517,0.64951 z"
           id="path13"
           sodipodi:nodetypes="ssczczczczszczczczcss" /><path
           style="fill:#8a24b4;fill-opacity:1;stroke:#000000;stroke-width:1.5;stroke-linecap:round;stroke-linejoin:round;stroke-dasharray:none;stroke-dashoffset:0.4;stroke-opacity:1"
           d="m 98.983857,167.85425 c 0,0 0.874085,0.8735 2.289033,0.82402 1.42846,-0.0499 2.41492,-1.07123 2.41492,-1.07123"
           id="path14"
           sodipodi:nodetypes="csc" /><path
           style="fill:#8a24b4;fill-opacity:1;stroke:#000000;stroke-width:1.5;stroke-linecap:round;stroke-linejoin:round;stroke-dasharray:none;stroke-dashoffset:0.4;stroke-opacity:1"
           d="m 104.36427,172.70327 c 0,0 0.87409,0.8735 2.28903,0.82402 1.42846,-0.0499 2.41492,-1.07123 2.41492,-1.07123"
           id="path15"
           sodipodi:nodetypes="csc" /><path
           style="fill:#8a24b4;fill-opacity:1;stroke:#000000;stroke-width:1.5;stroke-linecap:round;stroke-linejoin:round;stroke-dasharray:none;stroke-dashoffset:0.4;stroke-opacity:1"
           d="m 104.29785,181.20565 c 0,0 0.87409,0.8735 2.28903,0.82402 1.42846,-0.0499 2.41492,-1.07123 2.41492,-1.07123"
           id="path16"
           sodipodi:nodetypes="csc" /><path
           style="fill:#8a24b4;fill-opacity:1;stroke:#000000;stroke-width:1.5;stroke-linecap:round;stroke-linejoin:round;stroke-dasharray:none;stroke-dashoffset:0.4;stroke-opacity:1"
           d="m 104.49712,188.91093 c 0,0 0.87409,0.8735 2.28903,0.82402 1.42846,-0.0499 2.41492,-1.07123 2.41492,-1.07123"
           id="path17"
           sodipodi:nodetypes="csc" /><path
           style="fill:#8a24b4;fill-opacity:1;stroke:#000000;stroke-width:1.5;stroke-linecap:round;stroke-linejoin:round;stroke-dasharray:none;stroke-dashoffset:0.4;stroke-opacity:1"
           d="m 98.386032,194.22492 c 0,0 0.87409,0.8735 2.289028,0.82402 1.42846,-0.0499 2.41492,-1.07123 2.41492,-1.07123"
           id="path18"
           sodipodi:nodetypes="csc" /><path
           style="fill:#8a24b4;fill-opacity:1;stroke:#000000;stroke-width:1.5;stroke-linecap:round;stroke-linejoin:round;stroke-dasharray:none;stroke-dashoffset:0.4;stroke-opacity:1"
           d="m 91.876395,172.37115 c 0,0 0.87409,0.8735 2.28903,0.82402 1.42846,-0.0499 2.41492,-1.07123 2.41492,-1.07123"
           id="path19"
           sodipodi:nodetypes="csc" /><path
           style="fill:#8a24b4;fill-opacity:1;stroke:#000000;stroke-width:1.5;stroke-linecap:round;stroke-linejoin:round;stroke-dasharray:none;stroke-dashoffset:0.4;stroke-opacity:1"
           d="m 91.809975,180.87353 c 0,0 0.87409,0.8735 2.28903,0.82402 1.42846,-0.0499 2.41492,-1.07123 2.41492,-1.07123"
           id="path20"
           sodipodi:nodetypes="csc" /><path
           style="fill:#8a24b4;fill-opacity:1;stroke:#000000;stroke-width:1.5;stroke-linecap:round;stroke-linejoin:round;stroke-dasharray:none;stroke-dashoffset:0.4;stroke-opacity:1"
           d="m 92.009245,188.57881 c 0,0 0.87409,0.8735 2.28903,0.82402 1.42846,-0.0499 2.41492,-1.07123 2.41492,-1.07123"
           id="path21"
           sodipodi:nodetypes="csc" /><path
           style="fill:#8a24b4;fill-opacity:1;stroke:#000000;stroke-width:1.5;stroke-linecap:round;stroke-linejoin:round;stroke-dasharray:none;stroke-dashoffset:0.4;stroke-opacity:1"
           d="m 98.186758,176.75519 c 0,0 0.87409,0.8735 2.289032,0.82402 1.42846,-0.0499 2.41492,-1.07123 2.41492,-1.07123"
           id="path22"
           sodipodi:nodetypes="csc" /><path
           style="fill:#8a24b4;fill-opacity:1;stroke:#000000;stroke-width:1.5;stroke-linecap:round;stroke-linejoin:round;stroke-dasharray:none;stroke-dashoffset:0.4;stroke-opacity:1"
           d="m 98.120338,185.25757 c 0,0 0.87409,0.8735 2.289032,0.82402 1.42846,-0.0499 2.41492,-1.07123 2.41492,-1.07123"
           id="path23"
           sodipodi:nodetypes="csc" /><path
           style="fill:#00891d;fill-opacity:1;stroke:#102010;stroke-width:1;stroke-linecap:round;stroke-linejoin:round;stroke-dasharray:none;stroke-dashoffset:0.4;stroke-opacity:1"
           d="m 101.67927,162.82975 c 1.2386,-3.76633 1.08217,-3.48042 3.93037,-7.4524 -2.7603,0.19103 -2.66145,-0.37898 -4.74707,-1.48027 -1.854339,3.92901 -1.838993,4.46848 -2.092801,8.77954 1.654241,0.32151 1.323981,0.21901 2.909501,0.15313 z"
           id="path24"
           sodipodi:nodetypes="ccccc" /></g><g
         id="g12"
         transform="translate(-2.0253492,0.33755813)"><path
           style="fill:#8a24b4;fill-opacity:1;stroke:#000000;stroke-width:1.5;stroke-linecap:round;stroke-linejoin:round;stroke-dasharray:none;stroke-dashoffset:0.105833;stroke-opacity:1"
           d="m 100.28542,163.15866 c -2.379979,0.097 -5.22555,-1.5408 -7.144687,-0.1299 -1.490401,1.0957 -1.476438,4.99643 -1.476438,4.99643 0,0 -3.424861,0.49249 -4.027006,3.07017 -0.602146,2.57768 1.996053,5.83306 1.996053,5.83306 0,0 -2.39669,1.83265 -2.385763,4.0396 0.01093,2.20695 2.385763,4.40412 2.385763,4.40412 0,0 -2.677924,2.31965 -2.25586,4.68912 0.422063,2.36948 4.20441,4.40412 4.20441,4.40412 0,0 0.761684,3.98849 2.550566,4.94893 1.788882,0.96044 4.140269,-0.60722 6.282862,-0.66212 2.3906,-0.0613 5.50594,1.59475 7.22709,0.40231 1.72115,-1.19243 1.34654,-4.94893 1.34654,-4.94893 0,0 3.80088,-1.41484 4.49911,-4.27421 0.69823,-2.85937 -2.42066,-4.68912 -2.42066,-4.68912 0,0 2.30044,-1.14737 2.42066,-3.6247 0.12023,-2.47732 -2.42066,-4.55922 -2.42066,-4.55922 0,0 2.64194,-2.18382 2.33826,-5.32604 -0.30368,-3.14222 -4.66392,-4.0493 -4.66392,-4.0493 0,0 -0.25144,-4.1319 -1.96115,-5.17383 -1.85801,-1.13231 -4.32112,0.56088 -6.49517,0.64951 z"
           id="path1"
           sodipodi:nodetypes="ssczczczczszczczczcss" /><path
           style="fill:#8a24b4;fill-opacity:1;stroke:#000000;stroke-width:1.5;stroke-linecap:round;stroke-linejoin:round;stroke-dasharray:none;stroke-dashoffset:0.4;stroke-opacity:1"
           d="m 98.983857,167.85425 c 0,0 0.874085,0.8735 2.289033,0.82402 1.42846,-0.0499 2.41492,-1.07123 2.41492,-1.07123"
           id="path2"
           sodipodi:nodetypes="csc" /><path
           style="fill:#8a24b4;fill-opacity:1;stroke:#000000;stroke-width:1.5;stroke-linecap:round;stroke-linejoin:round;stroke-dasharray:none;stroke-dashoffset:0.4;stroke-opacity:1"
           d="m 104.36427,172.70327 c 0,0 0.87409,0.8735 2.28903,0.82402 1.42846,-0.0499 2.41492,-1.07123 2.41492,-1.07123"
           id="path3"
           sodipodi:nodetypes="csc" /><path
           style="fill:#8a24b4;fill-opacity:1;stroke:#000000;stroke-width:1.5;stroke-linecap:round;stroke-linejoin:round;stroke-dasharray:none;stroke-dashoffset:0.4;stroke-opacity:1"
           d="m 104.29785,181.20565 c 0,0 0.87409,0.8735 2.28903,0.82402 1.42846,-0.0499 2.41492,-1.07123 2.41492,-1.07123"
           id="path4"
           sodipodi:nodetypes="csc" /><path
           style="fill:#8a24b4;fill-opacity:1;stroke:#000000;stroke-width:1.5;stroke-linecap:round;stroke-linejoin:round;stroke-dasharray:none;stroke-dashoffset:0.4;stroke-opacity:1"
           d="m 104.49712,188.91093 c 0,0 0.87409,0.8735 2.28903,0.82402 1.42846,-0.0499 2.41492,-1.07123 2.41492,-1.07123"
           id="path5"
           sodipodi:nodetypes="csc" /><path
           style="fill:#8a24b4;fill-opacity:1;stroke:#000000;stroke-width:1.5;stroke-linecap:round;stroke-linejoin:round;stroke-dasharray:none;stroke-dashoffset:0.4;stroke-opacity:1"
           d="m 98.386032,194.22492 c 0,0 0.87409,0.8735 2.289028,0.82402 1.42846,-0.0499 2.41492,-1.07123 2.41492,-1.07123"
           id="path6"
           sodipodi:nodetypes="csc" /><path
           style="fill:#8a24b4;fill-opacity:1;stroke:#000000;stroke-width:1.5;stroke-linecap:round;stroke-linejoin:round;stroke-dasharray:none;stroke-dashoffset:0.4;stroke-opacity:1"
           d="m 91.876395,172.37115 c 0,0 0.87409,0.8735 2.28903,0.82402 1.42846,-0.0499 2.41492,-1.07123 2.41492,-1.07123"
           id="path7"
           sodipodi:nodetypes="csc" /><path
           style="fill:#8a24b4;fill-opacity:1;stroke:#000000;stroke-width:1.5;stroke-linecap:round;stroke-linejoin:round;stroke-dasharray:none;stroke-dashoffset:0.4;stroke-opacity:1"
           d="m 91.809975,180.87353 c 0,0 0.87409,0.8735 2.28903,0.82402 1.42846,-0.0499 2.41492,-1.07123 2.41492,-1.07123"
           id="path8"
           sodipodi:nodetypes="csc" /><path
           style="fill:#8a24b4;fill-opacity:1;stroke:#000000;stroke-width:1.5;stroke-linecap:round;stroke-linejoin:round;stroke-dasharray:none;stroke-dashoffset:0.4;stroke-opacity:1"
           d="m 92.009245,188.57881 c 0,0 0.87409,0.8735 2.28903,0.82402 1.42846,-0.0499 2.41492,-1.07123 2.41492,-1.07123"
           id="path9"
           sodipodi:nodetypes="csc" /><path
           style="fill:#8a24b4;fill-opacity:1;stroke:#000000;stroke-width:1.5;stroke-linecap:round;stroke-linejoin:round;stroke-dasharray:none;stroke-dashoffset:0.4;stroke-opacity:1"
           d="m 98.186758,176.75519 c 0,0 0.87409,0.8735 2.289032,0.82402 1.42846,-0.0499 2.41492,-1.07123 2.41492,-1.07123"
           id="path10"
           sodipodi:nodetypes="csc" /><path
           style="fill:#8a24b4;fill-opacity:1;stroke:#000000;stroke-width:1.5;stroke-linecap:round;stroke-linejoin:round;stroke-dasharray:none;stroke-dashoffset:0.4;stroke-opacity:1"
           d="m 98.120338,185.25757 c 0,0 0.87409,0.8735 2.289032,0.82402 1.42846,-0.0499 2.41492,-1.07123 2.41492,-1.07123"
           id="path11"
           sodipodi:nodetypes="csc" /><path
           style="fill:#00891d;fill-opacity:1;stroke:#102010;stroke-width:1;stroke-linecap:round;stroke-linejoin:round;stroke-dasharray:none;stroke-dashoffset:0.4;stroke-opacity:1"
           d="m 101.67927,162.82975 c 1.2386,-3.76633 1.08217,-3.48042 3.93037,-7.4524 -2.7603,0.19103 -2.66145,-0.37898 -4.74707,-1.48027 -1.854339,3.92901 -1.838993,4.46848 -2.092801,8.77954 1.654241,0.32151 1.323981,0.21901 2.909501,0.15313 z"
           id="path12"
           sodipodi:nodetypes="ccccc" /></g><path
         style="fill:#aa4400;fill-opacity:1;stroke:#102010;stroke-width:0.885828;stroke-linecap:round;stroke-linejoin:round;stroke-dasharray:none;stroke-dashoffset:0.4;stroke-opacity:1"
         d="m 114.58327,154.58092 c 0,0 -3.79829,1.99141 -9.31169,1.94001 -5.513413,-0.0514 -18.75454,-4.85001 -18.75454,-4.85001 l 1.311507,-3.15251 c 0,0 11.399627,5.03016 17.180733,5.57752 5.7811,0.54735 9.44284,-1.21251 9.44284,-1.21251 z"
         id="path25"
         sodipodi:nodetypes="czcczcc" /></g></g></svg>
