<?xml version="1.0" encoding="UTF-8" standalone="no"?>
<!-- Created with Inkscape (http://www.inkscape.org/) -->

<svg
   width="8.8947115mm"
   height="9.260416mm"
   viewBox="0 0 5.9298077 6.1736107"
   version="1.1"
   id="svg1"
   xml:space="preserve"
   inkscape:version="1.4 (e7c3feb100, 2024-10-09)"
   sodipodi:docname="speierling.svg"
   xmlns:inkscape="http://www.inkscape.org/namespaces/inkscape"
   xmlns:sodipodi="http://sodipodi.sourceforge.net/DTD/sodipodi-0.dtd"
   xmlns="http://www.w3.org/2000/svg"
   xmlns:svg="http://www.w3.org/2000/svg"><sodipodi:namedview
     id="namedview1"
     pagecolor="#ffffff"
     bordercolor="#000000"
     borderopacity="0.25"
     inkscape:showpageshadow="2"
     inkscape:pageopacity="0.0"
     inkscape:pagecheckerboard="0"
     inkscape:deskcolor="#d1d1d1"
     inkscape:document-units="mm"
     inkscape:zoom="3.1773658"
     inkscape:cx="-51.457719"
     inkscape:cy="56.808063"
     inkscape:window-width="1920"
     inkscape:window-height="1019"
     inkscape:window-x="0"
     inkscape:window-y="0"
     inkscape:window-maximized="1"
     inkscape:current-layer="layer1" /><defs
     id="defs1" /><g
     inkscape:label="Layer 1"
     inkscape:groupmode="layer"
     id="layer1"
     transform="translate(-141.58965,-132.02708)"><g
       id="g16"
       transform="matrix(0.04288149,0,0,0.04288149,138.35584,129.32)"><path
         style="fill:#aa4400;stroke:#102010;stroke-width:1;stroke-linecap:round;stroke-linejoin:round;stroke-dashoffset:0.4"
         d="M 122.01476,191.42435 C 98.588439,190.72396 77.635803,167.54837 75.985239,140.28044 74.334675,113.01251 101.3152,92.213169 112.88192,84.752766 c 11.56672,-7.460403 9.84423,-2.869865 15.70848,-2.557195 5.86425,0.31267 8.51855,-3.306483 18.631,5.114391 10.11245,8.420874 30.03763,23.711218 25.93727,53.701108 -4.10036,29.98989 -27.71759,51.11367 -51.14391,50.41328 z"
         id="path1"
         sodipodi:nodetypes="zzzzzzz" /><path
         style="fill:#c85000;fill-opacity:1;stroke:#9b3d00;stroke-width:3;stroke-linecap:round;stroke-linejoin:round;stroke-dasharray:none;stroke-dashoffset:0.4;stroke-opacity:1"
         d="m 156.93795,119.553 c -41.20335,9.21092 -44.02701,52.85652 -35.85786,65.72251 14.25605,22.45253 60.00971,33.50308 86.97297,-5.63368"
         id="path4"
         sodipodi:nodetypes="csc" /><path
         style="fill:#aa8c00;fill-opacity:1;stroke:#102010;stroke-width:1;stroke-linecap:round;stroke-linejoin:round;stroke-dashoffset:0.4"
         d="m 126.96268,82.866083 c 0,0 1.85407,-4.739736 0.29595,-9.174458 -1.55812,-4.434722 -4.1433,-7.99066 -4.1433,-7.99066 l 5.03115,-2.071651 c 0,0 3.11029,3.276407 4.1433,8.878509 1.03301,5.602102 -0.29595,11.838011 -0.29595,11.838011 z"
         id="path2"
         sodipodi:nodetypes="czcczcc" /><ellipse
         style="fill:#f3dea9;fill-opacity:1;stroke:#ca7e00;stroke-width:3;stroke-linecap:round;stroke-linejoin:round;stroke-dasharray:none;stroke-dashoffset:0.4;stroke-opacity:1"
         id="path3"
         cx="170.3194"
         cy="158.18544"
         rx="41.876965"
         ry="40.693169" /><g
         id="g7"><path
           style="fill:#f3dea9;fill-opacity:1;stroke:#ca7e00;stroke-width:2;stroke-linecap:round;stroke-linejoin:round;stroke-dasharray:none;stroke-dashoffset:0.4;stroke-opacity:1"
           d="m 172.26373,153.9888 c 0,-6.89055 0,-6.89055 0,-6.89055"
           id="path6" /><path
           style="fill:#e2c6ba;fill-opacity:1;stroke:#ca7700;stroke-width:3;stroke-linecap:round;stroke-linejoin:round;stroke-dasharray:none;stroke-dashoffset:0.4;stroke-opacity:1"
           d="m 171.36497,129.42249 c 0,0 -2.77109,3.11183 -2.62914,8.83373 0.10295,4.1499 2.92873,9.44121 2.92873,9.44121 0,0 3.02462,-4.86953 2.71592,-9.39366 -0.35942,-5.26758 -3.01551,-8.88128 -3.01551,-8.88128 z"
           id="path7"
           sodipodi:nodetypes="cscsc" /></g><g
         id="g9"
         transform="rotate(64.594438,172.26378,157.71633)"
         inkscape:transform-center-x="0.57614138"
         inkscape:transform-center-y="-2.6991599"><path
           style="fill:#f3dea9;fill-opacity:1;stroke:#ca7e00;stroke-width:2;stroke-linecap:round;stroke-linejoin:round;stroke-dasharray:none;stroke-dashoffset:0.4;stroke-opacity:1"
           d="m 172.26373,153.9888 c 0,-6.89055 0,-6.89055 0,-6.89055"
           id="path8" /><path
           style="fill:#e2c6ba;fill-opacity:1;stroke:#ca7700;stroke-width:3;stroke-linecap:round;stroke-linejoin:round;stroke-dasharray:none;stroke-dashoffset:0.4;stroke-opacity:1"
           d="m 171.36497,129.42249 c 0,0 -2.77109,3.11183 -2.62914,8.83373 0.10295,4.1499 2.92873,9.44121 2.92873,9.44121 0,0 3.02462,-4.86953 2.71592,-9.39366 -0.35942,-5.26758 -3.01551,-8.88128 -3.01551,-8.88128 z"
           id="path9"
           sodipodi:nodetypes="cscsc" /></g><g
         id="g11"
         transform="rotate(140.31531,171.82263,157.56068)"
         inkscape:transform-center-x="-2.3463921"
         inkscape:transform-center-y="-1.1915915"><path
           style="fill:#f3dea9;fill-opacity:1;stroke:#ca7e00;stroke-width:2;stroke-linecap:round;stroke-linejoin:round;stroke-dasharray:none;stroke-dashoffset:0.4;stroke-opacity:1"
           d="m 172.26373,153.9888 c 0,-6.89055 0,-6.89055 0,-6.89055"
           id="path10" /><path
           style="fill:#e2c6ba;fill-opacity:1;stroke:#ca7700;stroke-width:3;stroke-linecap:round;stroke-linejoin:round;stroke-dasharray:none;stroke-dashoffset:0.4;stroke-opacity:1"
           d="m 171.36497,129.42249 c 0,0 -2.77109,3.11183 -2.62914,8.83373 0.10295,4.1499 2.92873,9.44121 2.92873,9.44121 0,0 3.02462,-4.86953 2.71592,-9.39366 -0.35942,-5.26758 -3.01551,-8.88128 -3.01551,-8.88128 z"
           id="path11"
           sodipodi:nodetypes="cscsc" /></g><g
         id="g13"
         transform="rotate(-148.99999,171.98069,157.68285)"
         inkscape:transform-center-x="-1.886803"
         inkscape:transform-center-y="1.8198251"><path
           style="fill:#f3dea9;fill-opacity:1;stroke:#ca7e00;stroke-width:2;stroke-linecap:round;stroke-linejoin:round;stroke-dasharray:none;stroke-dashoffset:0.4;stroke-opacity:1"
           d="m 172.26373,153.9888 c 0,-6.89055 0,-6.89055 0,-6.89055"
           id="path12" /><path
           style="fill:#e2c6ba;fill-opacity:1;stroke:#ca7700;stroke-width:3;stroke-linecap:round;stroke-linejoin:round;stroke-dasharray:none;stroke-dashoffset:0.4;stroke-opacity:1"
           d="m 171.36497,129.42249 c 0,0 -2.77109,3.11183 -2.62914,8.83373 0.10295,4.1499 2.92873,9.44121 2.92873,9.44121 0,0 3.02462,-4.86953 2.71592,-9.39366 -0.35942,-5.26758 -3.01551,-8.88128 -3.01551,-8.88128 z"
           id="path13"
           sodipodi:nodetypes="cscsc" /></g><g
         id="g15"
         transform="rotate(-81.526404,172.31217,157.64388)"
         inkscape:transform-center-x="2.2575812"
         inkscape:transform-center-y="4.8241065"><path
           style="fill:#f3dea9;fill-opacity:1;stroke:#ca7e00;stroke-width:2;stroke-linecap:round;stroke-linejoin:round;stroke-dasharray:none;stroke-dashoffset:0.4;stroke-opacity:1"
           d="m 172.26373,153.9888 c 0,-6.89055 0,-6.89055 0,-6.89055"
           id="path14" /><path
           style="fill:#e2c6ba;fill-opacity:1;stroke:#ca7700;stroke-width:3;stroke-linecap:round;stroke-linejoin:round;stroke-dasharray:none;stroke-dashoffset:0.4;stroke-opacity:1"
           d="m 171.36497,129.42249 c 0,0 -2.77109,3.11183 -2.62914,8.83373 0.10295,4.1499 2.92873,9.44121 2.92873,9.44121 0,0 3.02462,-4.86953 2.71592,-9.39366 -0.35942,-5.26758 -3.01551,-8.88128 -3.01551,-8.88128 z"
           id="path15"
           sodipodi:nodetypes="cscsc" /></g><ellipse
         style="fill:#f8e76c;fill-opacity:1;stroke:#895500;stroke-width:1;stroke-linecap:round;stroke-linejoin:round;stroke-dasharray:none;stroke-dashoffset:0.4;stroke-opacity:1"
         id="path5"
         cx="171.81435"
         cy="157.58388"
         rx="3.1456857"
         ry="2.9958911" /></g></g></svg>
